<svg width="27" height="25" viewBox="0 0 27 25" fill="none" xmlns="http://www.w3.org/2000/svg">
<path d="M24.3897 21.4893C25.204 20.4397 25.7628 19.2278 26.0248 17.9428C26.2869 16.6579 26.2455 15.3328 25.9038 14.0652C25.5621 12.7977 24.9288 11.6201 24.0506 10.6194C23.1724 9.61871 22.0717 8.8204 20.8297 8.28341C20.5592 6.78679 19.9375 5.36915 19.0118 4.13821C18.0861 2.90727 16.8808 1.89541 15.4875 1.17952C14.0942 0.463635 12.5495 0.0625511 10.9709 0.00674718C9.39221 -0.0490568 7.82108 0.241887 6.37687 0.857473C4.93266 1.47306 3.65337 2.39709 2.6362 3.55935C1.61903 4.72162 0.890746 6.09154 0.506684 7.56502C0.122622 9.0385 0.0928879 10.5768 0.41974 12.063C0.746592 13.5492 1.42143 14.9441 2.39298 16.142L0.586987 17.8661C0.406702 18.0418 0.284575 18.2649 0.236016 18.5072C0.187457 18.7496 0.214641 19.0004 0.314139 19.2279C0.411611 19.4561 0.577136 19.6514 0.789854 19.7892C1.00257 19.9271 1.25296 20.0013 1.50947 20.0025H8.90235C9.63858 21.495 10.7993 22.7565 12.2503 23.6409C13.7012 24.5254 15.3829 24.9966 17.1008 25H24.8964C25.153 24.9988 25.4033 24.9246 25.6161 24.7867C25.8288 24.6489 25.9943 24.4535 26.0918 24.2254C26.1913 23.9979 26.2185 23.7471 26.1699 23.5047C26.1213 23.2624 25.9992 23.0393 25.8189 22.8636L24.3897 21.4893ZM8.00585 16.2544C8.00764 16.6728 8.04239 17.0904 8.1098 17.5038H4.64073L5.09548 17.079C5.21725 16.9628 5.31391 16.8247 5.37988 16.6724C5.44584 16.5202 5.4798 16.3569 5.4798 16.1919C5.4798 16.027 5.44584 15.8637 5.37988 15.7115C5.31391 15.5592 5.21725 15.421 5.09548 15.3049C4.36731 14.6124 3.79003 13.7872 3.39739 12.8776C3.00475 11.9681 2.80464 10.9924 2.80875 10.0075C2.80875 8.01942 3.63008 6.11272 5.09204 4.70691C6.55401 3.30109 8.53687 2.51131 10.6044 2.51131C12.2177 2.50199 13.7935 2.97906 15.1102 3.87546C16.4269 4.77186 17.4184 6.04251 17.9453 7.5088C17.6595 7.5088 17.3866 7.5088 17.1008 7.5088C14.6887 7.5088 12.3753 8.43021 10.6697 10.0703C8.96407 11.7104 8.00585 13.9349 8.00585 16.2544ZM21.7002 22.5013L21.7652 22.5637H17.1008C15.598 22.5611 14.1426 22.0576 12.9825 21.1389C11.8224 20.2203 11.0295 18.9432 10.7387 17.5254C10.448 16.1076 10.6774 14.6368 11.388 13.3634C12.0985 12.09 13.2462 11.0929 14.6355 10.5419C16.0248 9.99092 17.5698 9.92015 19.0073 10.3417C20.4447 10.7632 21.6858 11.6509 22.519 12.8535C23.3521 14.0562 23.7259 15.4995 23.5766 16.9374C23.4274 18.3754 22.7642 19.7191 21.7002 20.7396C21.4554 20.9703 21.3153 21.2847 21.3104 21.6142C21.3112 21.7795 21.346 21.943 21.4129 22.0953C21.4798 22.2476 21.5775 22.3855 21.7002 22.5013Z" fill="#0D656B"/>
</svg>
