<svg width="26" height="24" viewBox="0 0 26 24" fill="none" xmlns="http://www.w3.org/2000/svg">
<path d="M12.9999 0C9.91308 0.000121147 6.92699 1.03979 4.57596 2.93297C2.22493 4.82615 0.662382 7.44931 0.167907 10.3331C-0.326567 13.2169 0.279297 16.1731 1.87709 18.6727C3.47489 21.1724 5.96035 23.0524 8.88875 23.9764C9.53874 24.0841 9.78249 23.715 9.78249 23.392C9.78249 23.0998 9.76623 22.1309 9.76623 21.1005C6.49999 21.6695 5.655 20.347 5.395 19.6549C5.1065 18.9818 4.64916 18.3853 4.06251 17.917C3.60751 17.6863 2.95751 17.1173 4.04624 17.1019C4.46196 17.1446 4.86068 17.2815 5.20862 17.501C5.55655 17.7205 5.84345 18.0162 6.04499 18.363C6.22279 18.6653 6.46187 18.9314 6.74853 19.1461C7.03519 19.3608 7.3638 19.5198 7.71552 19.6141C8.06724 19.7084 8.43517 19.7361 8.79822 19.6956C9.16126 19.6551 9.51229 19.5472 9.83119 19.378C9.88747 18.7525 10.182 18.1677 10.66 17.7325C7.76748 17.4249 4.745 16.3637 4.745 11.6576C4.72673 10.4348 5.20349 9.25175 6.07749 8.35104C5.68006 7.28829 5.72656 6.122 6.20749 5.09061C6.20749 5.09061 7.29619 4.76763 9.78247 6.35172C11.9096 5.79803 14.1553 5.79803 16.2824 6.35172C18.7686 4.75227 19.8574 5.09061 19.8574 5.09061C20.3384 6.12198 20.3849 7.2883 19.9874 8.35104C20.864 9.25021 21.3412 10.4343 21.3199 11.6576C21.3199 16.379 18.2811 17.4249 15.3887 17.7325C15.6989 18.0301 15.9379 18.3874 16.0893 18.7801C16.2407 19.1729 16.301 19.5918 16.2662 20.0086C16.2662 21.6542 16.2499 22.9768 16.2499 23.3921C16.2499 23.7151 16.4937 24.0995 17.1437 23.9765C20.0669 23.045 22.5452 21.1605 24.1362 18.6596C25.7272 16.1586 26.3273 13.2039 25.8294 10.3229C25.3315 7.44196 23.768 4.8222 21.418 2.93132C19.068 1.04045 16.0844 0.00151937 12.9999 0Z" fill="#0D656B"/>
</svg>
