<svg width="27" height="29" viewBox="0 0 27 29" fill="none" xmlns="http://www.w3.org/2000/svg">
<path d="M26.1331 11.0781C25.9184 8.97243 25.1287 6.95506 23.8409 5.22241C22.5531 3.48976 20.8111 2.10089 18.7846 1.19103C16.758 0.281176 14.516 -0.11865 12.2768 0.0304846C10.0376 0.17962 7.87749 0.872634 6.0069 2.04204C4.39986 3.05466 3.05076 4.39012 2.05652 5.95246C1.06227 7.51481 0.44757 9.26526 0.256563 11.0781C0.069191 12.879 0.309591 14.6967 0.960322 16.3992C1.61105 18.1017 2.65579 19.6464 4.01875 20.9212L12.1243 28.5737C12.2665 28.7088 12.4356 28.816 12.622 28.8892C12.8083 28.9623 13.0082 29 13.2101 29C13.412 29 13.6119 28.9623 13.7983 28.8892C13.9846 28.816 14.1538 28.7088 14.296 28.5737L22.3709 20.9212C23.7339 19.6464 24.7786 18.1017 25.4293 16.3992C26.0801 14.6967 26.3205 12.879 26.1331 11.0781ZM20.2298 18.8891L13.1948 25.5185L6.15984 18.8891C5.12308 17.9121 4.32891 16.7308 3.83442 15.43C3.33993 14.1293 3.1574 12.7415 3.29996 11.3663C3.44344 9.96999 3.9144 8.62115 4.67877 7.41733C5.44315 6.2135 6.48185 5.18478 7.71977 4.40554C9.34232 3.38986 11.2469 2.84807 13.1948 2.84807C15.1427 2.84807 17.0473 3.38986 18.6699 4.40554C19.904 5.18177 20.9405 6.20595 21.7046 7.40449C22.4688 8.60304 22.9418 9.94621 23.0897 11.3375C23.2369 12.7173 23.0567 14.1107 22.562 15.4168C22.0674 16.7228 21.2708 17.9089 20.2298 18.8891ZM13.1948 5.84669C11.8337 5.84669 10.5031 6.22704 9.37136 6.93965C8.23961 7.65225 7.35752 8.6651 6.83664 9.85011C6.31575 11.0351 6.17946 12.3391 6.44501 13.5971C6.71055 14.8551 7.36601 16.0106 8.32848 16.9176C9.29095 17.8246 10.5172 18.4422 11.8522 18.6925C13.1872 18.9427 14.5709 18.8143 15.8285 18.3234C17.086 17.8326 18.1608 17.0014 18.917 15.9349C19.6733 14.8684 20.0769 13.6145 20.0769 12.3319C20.0728 10.6131 19.3465 8.96575 18.0567 7.75037C16.7669 6.53498 15.0188 5.8505 13.1948 5.84669ZM13.1948 15.9348C12.4386 15.9348 11.6994 15.7235 11.0707 15.3276C10.4419 14.9317 9.95188 14.369 9.6625 13.7107C9.37312 13.0523 9.2974 12.3279 9.44493 11.629C9.59245 10.9301 9.95659 10.2881 10.4913 9.78427C11.026 9.28039 11.7073 8.93725 12.4489 8.79823C13.1906 8.65921 13.9593 8.73056 14.658 9.00326C15.3566 9.27595 15.9537 9.73774 16.3738 10.3302C16.794 10.9227 17.0182 11.6193 17.0182 12.3319C17.0182 13.2874 16.6154 14.2038 15.8983 14.8795C15.1813 15.5552 14.2088 15.9348 13.1948 15.9348Z" fill="#0D656B"/>
</svg>
