<svg width="26" height="20" viewBox="0 0 26 20" fill="none" xmlns="http://www.w3.org/2000/svg">
<path d="M22.1 0H3.9C2.86566 0 1.87368 0.395088 1.14228 1.09835C0.410892 1.80161 0 2.75544 0 3.75V16.25C0 17.2446 0.410892 18.1984 1.14228 18.9017C1.87368 19.6049 2.86566 20 3.9 20H22.1C23.1343 20 24.1263 19.6049 24.8577 18.9017C25.5891 18.1984 26 17.2446 26 16.25V3.75C26 2.75544 25.5891 1.80161 24.8577 1.09835C24.1263 0.395088 23.1343 0 22.1 0V0ZM21.567 2.5L13.923 9.85C13.8021 9.96716 13.6584 10.0602 13.4999 10.1236C13.3415 10.1871 13.1716 10.2197 13 10.2197C12.8284 10.2197 12.6585 10.1871 12.5 10.1236C12.3416 10.0602 12.1979 9.96716 12.077 9.85L4.433 2.5H21.567ZM23.4 16.25C23.4 16.5815 23.263 16.8995 23.0192 17.1339C22.7754 17.3683 22.4448 17.5 22.1 17.5H3.9C3.55522 17.5 3.22456 17.3683 2.98076 17.1339C2.73696 16.8995 2.6 16.5815 2.6 16.25V4.2625L10.244 11.6125C10.9753 12.3148 11.9665 12.7092 13 12.7092C14.0335 12.7092 15.0247 12.3148 15.756 11.6125L23.4 4.2625V16.25Z" fill="#0D656B"/>
</svg>
